<svg width="254" height="20" viewBox="0 0 254 20" fill="none" xmlns="http://www.w3.org/2000/svg">
<g clip-path="url(#clip0_591_1384)">
<path d="M63.8882 11.7204C64.7615 11.1948 65.453 10.5137 65.926 9.68937C66.4112 8.865 66.6538 7.86142 66.6538 6.67862C66.6538 5.49582 66.3748 4.33692 65.8168 3.39308C65.271 2.44923 64.4826 1.70849 63.5 1.1828C62.5054 0.645168 61.3409 0.382324 60.0309 0.382324H51.7583V19.4146H55.8339V12.9749H58.5389C58.7936 12.9749 58.9877 12.9749 59.1333 12.963L59.5336 12.9391L62.6146 19.4146H67.2118L63.4273 11.9833L63.8882 11.7085V11.7204ZM62.1172 8.1601C61.8625 8.60216 61.5107 8.96058 61.0619 9.22342C60.6131 9.48627 60.1037 9.61769 59.5457 9.61769H55.8339V3.89487H59.5942C60.3948 3.89487 61.0862 4.14577 61.632 4.63561C62.2143 5.1374 62.5054 5.83035 62.5054 6.69057C62.5054 7.21625 62.372 7.71805 62.1172 8.1601Z" fill="white"/>
<path d="M85.2004 1.31422C83.6721 0.442055 81.9496 0 80.0937 0C78.2379 0 76.5033 0.442055 74.9749 1.31422C73.4466 2.18638 72.2336 3.38112 71.3481 4.8865C70.4626 6.39188 70.0138 8.06452 70.0138 9.86858C70.0138 11.6726 70.4626 13.3453 71.3481 14.8507C72.2336 16.356 73.4587 17.5627 74.987 18.4468C76.5154 19.3309 78.2379 19.773 80.0937 19.773C81.9496 19.773 83.6599 19.3309 85.1883 18.4468C86.7167 17.5627 87.9418 16.356 88.8273 14.8387C89.7127 13.3333 90.1616 11.6487 90.1616 9.85663C90.1616 8.06452 89.7127 6.37993 88.8273 4.87455C87.9418 3.36918 86.7167 2.17443 85.2004 1.30227M85.2004 12.963C84.6667 13.8949 83.9389 14.6356 83.0292 15.1732C82.1194 15.7109 81.1248 15.9857 80.0816 15.9857C79.0384 15.9857 78.0559 15.7109 77.1462 15.1732C76.2364 14.6356 75.5086 13.8949 74.9749 12.963C74.4291 12.0311 74.1622 11.0036 74.1622 9.88053C74.1622 8.75747 74.4412 7.72999 74.9749 6.79809C75.5086 5.86619 76.2486 5.12545 77.1462 4.59976C78.0559 4.06213 79.0506 3.78734 80.0937 3.78734C81.1369 3.78734 82.1194 4.06213 83.0292 4.59976C83.9268 5.1374 84.6546 5.87814 85.2004 6.79809C85.7463 7.72999 86.0131 8.75747 86.0131 9.88053C86.0131 11.0036 85.7463 12.0311 85.2126 12.963" fill="white"/>
<path d="M151.818 2.12642V7.53861H143.145V0.394043H139.069V19.4263H143.145V11.3379H151.818V19.4263H155.894V0.394043H153.589C152.606 0.394043 151.818 1.17063 151.818 2.13837" fill="white"/>
<path d="M121.833 1.87575L120.984 4.03824H126.212V19.4146H130.287V4.03824H135.806V0.382324H124.028C123.058 0.382324 122.172 0.979696 121.821 1.87575" fill="white"/>
<path d="M106.598 0.394043C105.566 0.394043 104.657 1.05115 104.341 2.01889L100.727 13.4167L96.2265 0.394043H92.163L98.6161 20.0117H102.874L109.339 0.394043H106.585H106.598Z" fill="white"/>
<path d="M113.754 1.9711L109.873 13.4048L108.793 9.77278C108.732 9.55772 108.417 9.54578 108.344 9.77278L106.246 16.3319L107.629 20.0117H112.056L118.497 0.394043H115.986C114.979 0.394043 114.07 1.02726 113.754 1.9711Z" fill="#D5B200"/>
<path d="M47.6826 9.319H37.9423L38.5124 11.1231C38.8278 12.0908 39.7375 12.7479 40.7564 12.7479H43.0004C42.4667 13.7873 41.7268 14.5998 40.7807 15.1732C39.8952 15.7109 38.9369 15.9857 37.918 15.9857C36.8991 15.9857 35.953 15.7109 35.0675 15.1732C34.182 14.6356 33.4785 13.8949 32.9569 12.963C32.4353 12.0311 32.1684 11.0036 32.1684 9.88053C32.1684 8.75747 32.4353 7.72999 32.9569 6.79809C33.4785 5.86619 34.1941 5.12545 35.0675 4.59976C35.953 4.06213 36.9112 3.78734 37.9301 3.78734C38.9491 3.78734 39.8952 4.06213 40.7807 4.59976C41.3508 4.94624 41.836 5.38829 42.2605 5.90203H46.9184C46.7728 5.55556 46.6151 5.22103 46.4211 4.8865C45.5598 3.38112 44.3711 2.18638 42.8913 1.31422C41.4114 0.442055 39.7496 0 37.9423 0C36.1349 0 34.4489 0.442055 32.969 1.31422C31.4892 2.18638 30.3004 3.38112 29.4392 4.8865C28.578 6.39188 28.1534 8.06452 28.1534 9.86858C28.1534 11.6726 28.5901 13.3453 29.4392 14.8507C30.3004 16.356 31.4892 17.5627 32.9811 18.4468C34.4731 19.3309 36.1349 19.773 37.9423 19.773C39.7496 19.773 41.4114 19.3309 42.8913 18.4468C44.3832 17.5627 45.572 16.356 46.4332 14.8387C47.3672 13.178 47.8039 11.3262 47.7068 9.33094C47.7068 9.33094 47.6947 9.319 47.6826 9.30705" fill="white"/>
<path d="M177.4 1.57684L172.984 13.4167L168.12 0.394043H163.778L171.177 19.4263H174.743L182.142 0.394043H179.061C178.297 0.394043 177.63 0.87194 177.388 1.58879" fill="white"/>
<path d="M216.13 11.7204C217.004 11.1948 217.695 10.5137 218.168 9.68937C218.653 8.865 218.896 7.86142 218.896 6.67862C218.896 5.49582 218.617 4.33692 218.059 3.39308C217.513 2.44923 216.725 1.70849 215.742 1.1828C214.748 0.645168 213.583 0.382324 212.273 0.382324H204V19.4146H208.076V12.9749H210.781C211.036 12.9749 211.23 12.9749 211.363 12.963L211.764 12.9391L214.845 19.4146H219.442L215.657 11.9833L216.118 11.7085L216.13 11.7204ZM214.372 8.1601C214.117 8.60216 213.765 8.96058 213.316 9.22342C212.867 9.48627 212.358 9.61769 211.8 9.61769H208.088V3.89487H211.849C212.649 3.89487 213.341 4.14577 213.886 4.63561C214.469 5.1374 214.76 5.83035 214.76 6.69057C214.76 7.2282 214.626 7.71805 214.372 8.1601Z" fill="white"/>
<path d="M233.282 9.54623C232.421 9.02054 231.305 8.5307 229.971 8.06475C229.874 8.0289 229.558 7.92138 229.558 7.92138C228.77 7.65853 228.2 7.44348 227.812 7.28816C227.375 7.10895 227.035 6.90584 226.768 6.65495C226.441 6.35626 226.271 5.97394 226.271 5.55578C226.271 4.93452 226.526 4.40883 227.011 4.05041C227.46 3.71588 228.078 3.53667 228.843 3.53667C229.704 3.53667 231.293 3.70393 231.402 5.0301H235.466C235.162 0.537863 230.08 -0.0117188 228.624 -0.0117188C227.169 -0.0117188 225.895 0.239177 224.937 0.752917C223.991 1.24276 223.299 1.89987 222.863 2.6884C222.426 3.50083 222.195 4.39688 222.195 5.36463C222.195 7.01337 222.693 8.23201 223.724 9.06833C224.816 9.95244 226.162 10.6334 227.727 11.0994C228.746 11.3981 229.51 11.6609 230.056 11.9238C230.662 12.2105 231.075 12.4972 231.317 12.8198C231.572 13.1663 231.705 13.5606 231.705 14.0146C231.705 14.6836 231.402 15.2452 230.844 15.6275C230.335 15.9739 229.619 16.1412 228.661 16.1412C226.914 16.1412 226.041 15.3407 225.592 14.0863H221.528C221.953 16.7983 224.185 19.7613 228.794 19.7613C230.225 19.7613 231.499 19.5104 232.579 19.0205C233.622 18.5426 234.447 17.8497 235.017 16.9775C235.587 16.1054 235.878 15.0659 235.878 13.907C235.878 12.9154 235.66 12.0552 235.223 11.3622C234.774 10.6573 234.131 10.0361 233.319 9.54623" fill="white"/>
<path d="M197.96 15.9138H189.869V3.89464H197.742C198.724 3.89464 199.513 3.11806 199.513 2.15032V0.394043H187.565C186.582 0.394043 185.794 1.17063 185.794 2.13837V19.4263H199.731V17.6581C199.731 16.6903 198.943 15.9138 197.96 15.9138Z" fill="white"/>
<path d="M197.414 8.20801H191.871V11.3741H197.414V8.20801Z" fill="white"/>
<path d="M252.229 15.9138H244.138V3.89464H252.011C252.993 3.89464 253.782 3.11806 253.782 2.15032V0.394043H241.834C240.851 0.394043 240.063 1.17063 240.063 2.13837V19.4263H254V17.6581C254 16.6903 253.212 15.9138 252.229 15.9138Z" fill="white"/>
<path d="M251.683 8.20801H246.14V11.3741H251.683V8.20801Z" fill="white"/>
<path d="M0 4.05024H3.26294L4.50019 5.8782H3.46915L10.8077 16.7026L21.8581 0.442117C22.0279 0.191221 22.3069 0.0478516 22.6101 0.0478516H24.4417L10.8077 19.9642L0 4.05024Z" fill="#D5B200"/>
<path d="M2.17126 0.0478516H19.6262L18.6073 1.55323C18.4617 1.75633 18.2434 1.87581 17.9886 1.87581H5.7981L10.8199 9.28322L13.2095 5.8782H10.1285L8.89123 4.05024H16.7757L10.832 12.7958L2.17126 0.0478516Z" fill="white"/>
</g>
<defs>
<clipPath id="clip0_591_1384">
<rect width="254" height="20" fill="white"/>
</clipPath>
</defs>
</svg>
